<svg xmlns="http://www.w3.org/2000/svg" viewBox="0 0 1200 400" width="1200" height="400" role="img" aria-label="Rishendra Chary, Wanderer of Orchestration" xmlns:c2pa="http://c2pa.org/manifest"><metadata><c2pa:manifest>AAAWgmp1bWIAAAAeanVtZGMycGEAEQAQgAAAqgA4m3EDYzJwYQAAABZcanVtYgAAAEdqdW1kYzJtYQARABCAAACqADibcQN1cm46YzJwYTpjZjBmODlhYy1iYTRhLTRhY2ItYTJhZi0wZGQwZTg5YTJlMWUAAAADl2p1bWIAAAApanVtZGMyYXMAEQAQgAAAqgA4m3EDYzJwYS5hc3NlcnRpb25zAAAAALxqdW1iAAAARGp1bWRjYm9yABEAEIAAAKoAOJtxE2MycGEuaW5ncmVkaWVudC52MwAAAAAYYzJzaOxi6a4Vc611IaBxslJFiDIAAABwY2JvcqNpZGM6Zm9ybWF0bWltYWdlL3N2Zyt4bWxqaW5zdGFuY2VJRHgseG1wOmlpZDo1YTA4ZGJhZC01NjVmLTRjNTgtYWQxNy0wNDhiOTNjZTFjOThscmVsYXRpb25zaGlwaHBhcmVudE9mAAAB4mp1bWIAAABBanVtZGNib3IAEQAQgAAAqgA4m3ETYzJwYS5hY3Rpb25zLnYyAAAAABhjMnNodwiEtDK4HGycEtYGc+pv3AAAAZljYm9yomdhY3Rpb25zgqJmYWN0aW9ua2MycGEub3BlbmVkanBhcmFtZXRlcnOha2luZ3JlZGllbnRzgaJjdXJseC1zZWxmI2p1bWJmPWMycGEuYXNzZXJ0aW9ucy9jMnBhLmluZ3JlZGllbnQudjNkaGFzaFgguEmD1/dBUmfqU+1EPlaW8XH0dR8gqfrVc3GnXDyazGGkZmFjdGlvbngdY29tLmFudGhyb3BpYy5jbGF1ZGUucHJvdmlkZWRqcGFyYW1ldGVyc6F4H2NvbS5hbnRocm9waWMub3JpZ2luLWNvbmZpZGVuY2VndW5rbm93bmtkZXNjcmlwdGlvbnhmQ2xhdWRlIHByb3ZpZGVkIHRoaXMgZmlsZSBhdCB0aGUgcmVxdWVzdCBvZiBhIHVzZXIgYW5kIG1heSBoYXZlIGNyZWF0ZWQgb3IgbW9kaWZpZWQgdGhlIGZpbGUgY29udGVudHMubXNvZnR3YXJlQWdlbnShZG5hbWVmQ2xhdWRlcmFsbEFjdGlvbnNJbmNsdWRlZPUAAADIanVtYgAAAEBqdW1kY2JvcgARABCAAACqADibcRNjMnBhLmhhc2guZGF0YQAAAAAYYzJzaJ4i0DZ5mo9Mw27pngFj3KYAAACAY2JvcqVjYWxnZnNoYTI1NmNwYWRNAAAAAAAAAAAAAAAAAGRoYXNoWCAJjFSdWvfFZe+/AhPKDSw/pqvmbgky+97Kz+DKyKa49GRuYW1lbmp1bWJmIG1hbmlmZXN0amV4Y2x1c2lvbnOBomVzdGFydBjbZmxlbmd0aBkeBAAAAj5qdW1iAAAAJ2p1bWRjMmNsABEAEIAAAKoAOJtxA2MycGEuY2xhaW0udjIAAAACD2Nib3KlY2FsZ2ZzaGEyNTZpc2lnbmF0dXJleE1zZWxmI2p1bWJmPS9jMnBhL3VybjpjMnBhOmNmMGY4OWFjLWJhNGEtNGFjYi1hMmFmLTBkZDBlODlhMmUxZS9jMnBhLnNpZ25hdHVyZWppbnN0YW5jZUlEeCx4bXA6aWlkOjZiNjc5ZWE2LTA0N2ItNDU3Ny1iMGNmLWYxODVlYjE0ZGFjNHJjcmVhdGVkX2Fzc2VydGlvbnODomN1cmx4LXNlbGYjanVtYmY9YzJwYS5hc3NlcnRpb25zL2MycGEuaW5ncmVkaWVudC52M2RoYXNoWCC4SYPX90FSZ+pT7UQ+VpbxcfR1HyCp+tVzcadcPJrMYaJjdXJseCpzZWxmI2p1bWJmPWMycGEuYXNzZXJ0aW9ucy9jMnBhLmFjdGlvbnMudjJkaGFzaFgguL/96BeuT87Fke3C4MchUSS9HYQvcNFmGw7U7zLIa0yiY3VybHgpc2VsZiNqdW1iZj1jMnBhLmFzc2VydGlvbnMvYzJwYS5oYXNoLmRhdGFkaGFzaFggdxaSMPyptWy37khA4H4qv1kYJgp52Jm0pKtMo6NdqW90Y2xhaW1fZ2VuZXJhdG9yX2luZm+jZG5hbWVvQW50aHJvcGljIEZpbGVzZ3ZlcnNpb25lMS4wLjBrc3BlY1ZlcnNpb25lMi40LjAAABA4anVtYgAAAChqdW1kYzJjcwARABCAAACqADibcQNjMnBhLnNpZ25hdHVyZQAAABAIY2JvctKEWQISogEmGCFZAgowggIGMIIBjaADAgECAhRA5aAK7sI50L64g/oGQgU9Z1UTADAKBggqhkjOPQQDAzBJMRcwFQYDVQQKEw5BbnRocm9waWMsIFBCQzEuMCwGA1UEAxMlQW50aHJvcGljIENvbnRlbnQgQ3JlZGVudGlhbHMgUm9vdCBDQTAeFw0yNjA4MDcxODQzNTZaFw0yODA4MDYxOTQzNTZaMEQxFzAVBgNVBAoTDkFudGhyb3BpYywgUEJDMSkwJwYDVQQDEyBBbnRocm9waWMgQ2xhdWRlIENvbnRlbnQgU2lnbmluZzBZMBMGByqGSM49AgEGCCqGSM49AwEHA0IABJh6CmvLUBgFFNU0vUKlOVtE6djd17L5SuwX0LemFisBM3dkd/3cyjxFA3Qo5S46fX0/ihY0VZ7mfb9KF703t5OjWDBWMA4GA1UdDwEB/wQEAwIHgDAVBgNVHSUEDjAMBgorBgEEAYPoXgIBMAwGA1UdEwEB/wQCMAAwHwYDVR0jBBgwFoAUzlHiBIFOZFsj+OPEz5o+nMHXXMIwCgYIKoZIzj0EAwMDZwAwZAIwMXMdFJ4BetLLVY7ORuE9noqbbAZOZn/aArXyTwFAZfKrPzxF2vPoJNf1+UCdg1XGAjBwX1zd9WGqYkqmL5SFqw1QySjr1zJfpJM9+1rdDwSPLMOPOjKuiXjoU/pUUeG9RwmhY3BhZFkNngAAAAAAAAAAAAAAAAAAAAAAAAAAAAAAAAAAAAAAAAAAAAAAAAAAAAAAAAAAAAAAAAAAAAAAAAAAAAAAAAAAAAAAAAAAAAAAAAAAAAAAAAAAAAAAAAAAAAAAAAAAAAAAAAAAAAAAAAAAAAAAAAAAAAAAAAAAAAAAAAAAAAAAAAAAAAAAAAAAAAAAAAAAAAAAAAAAAAAAAAAAAAAAAAAAAAAAAAAAAAAAAAAAAAAAAAAAAAAAAAAAAAAAAAAAAAAAAAAAAAAAAAAAAAAAAAAAAAAAAAAAAAAAAAAAAAAAAAAAAAAAAAAAAAAAAAAAAAAAAAAAAAAAAAAAAAAAAAAAAAAAAAAAAAAAAAAAAAAAAAAAAAAAAAAAAAAAAAAAAAAAAAAAAAAAAAAAAAAAAAAAAAAAAAAAAAAAAAAAAAAAAAAAAAAAAAAAAAAAAAAAAAAAAAAAAAAAAAAAAAAAAAAAAAAAAAAAAAAAAAAAAAAAAAAAAAAAAAAAAAAAAAAAAAAAAAAAAAAAAAAAAAAAAAAAAAAAAAAAAAAAAAAAAAAAAAAAAAAAAAAAAAAAAAAAAAAAAAAAAAAAAAAAAAAAAAAAAAAAAAAAAAAAAAAAAAAAAAAAAAAAAAAAAAAAAAAAAAAAAAAAAAAAAAAAAAAAAAAAAAAAAAAAAAAAAAAAAAAAAAAAAAAAAAAAAAAAAAAAAAAAAAAAAAAAAAAAAAAAAAAAAAAAAAAAAAAAAAAAAAAAAAAAAAAAAAAAAAAAAAAAAAAAAAAAAAAAAAAAAAAAAAAAAAAAAAAAAAAAAAAAAAAAAAAAAAAAAAAAAAAAAAAAAAAAAAAAAAAAAAAAAAAAAAAAAAAAAAAAAAAAAAAAAAAAAAAAAAAAAAAAAAAAAAAAAAAAAAAAAAAAAAAAAAAAAAAAAAAAAAAAAAAAAAAAAAAAAAAAAAAAAAAAAAAAAAAAAAAAAAAAAAAAAAAAAAAAAAAAAAAAAAAAAAAAAAAAAAAAAAAAAAAAAAAAAAAAAAAAAAAAAAAAAAAAAAAAAAAAAAAAAAAAAAAAAAAAAAAAAAAAAAAAAAAAAAAAAAAAAAAAAAAAAAAAAAAAAAAAAAAAAAAAAAAAAAAAAAAAAAAAAAAAAAAAAAAAAAAAAAAAAAAAAAAAAAAAAAAAAAAAAAAAAAAAAAAAAAAAAAAAAAAAAAAAAAAAAAAAAAAAAAAAAAAAAAAAAAAAAAAAAAAAAAAAAAAAAAAAAAAAAAAAAAAAAAAAAAAAAAAAAAAAAAAAAAAAAAAAAAAAAAAAAAAAAAAAAAAAAAAAAAAAAAAAAAAAAAAAAAAAAAAAAAAAAAAAAAAAAAAAAAAAAAAAAAAAAAAAAAAAAAAAAAAAAAAAAAAAAAAAAAAAAAAAAAAAAAAAAAAAAAAAAAAAAAAAAAAAAAAAAAAAAAAAAAAAAAAAAAAAAAAAAAAAAAAAAAAAAAAAAAAAAAAAAAAAAAAAAAAAAAAAAAAAAAAAAAAAAAAAAAAAAAAAAAAAAAAAAAAAAAAAAAAAAAAAAAAAAAAAAAAAAAAAAAAAAAAAAAAAAAAAAAAAAAAAAAAAAAAAAAAAAAAAAAAAAAAAAAAAAAAAAAAAAAAAAAAAAAAAAAAAAAAAAAAAAAAAAAAAAAAAAAAAAAAAAAAAAAAAAAAAAAAAAAAAAAAAAAAAAAAAAAAAAAAAAAAAAAAAAAAAAAAAAAAAAAAAAAAAAAAAAAAAAAAAAAAAAAAAAAAAAAAAAAAAAAAAAAAAAAAAAAAAAAAAAAAAAAAAAAAAAAAAAAAAAAAAAAAAAAAAAAAAAAAAAAAAAAAAAAAAAAAAAAAAAAAAAAAAAAAAAAAAAAAAAAAAAAAAAAAAAAAAAAAAAAAAAAAAAAAAAAAAAAAAAAAAAAAAAAAAAAAAAAAAAAAAAAAAAAAAAAAAAAAAAAAAAAAAAAAAAAAAAAAAAAAAAAAAAAAAAAAAAAAAAAAAAAAAAAAAAAAAAAAAAAAAAAAAAAAAAAAAAAAAAAAAAAAAAAAAAAAAAAAAAAAAAAAAAAAAAAAAAAAAAAAAAAAAAAAAAAAAAAAAAAAAAAAAAAAAAAAAAAAAAAAAAAAAAAAAAAAAAAAAAAAAAAAAAAAAAAAAAAAAAAAAAAAAAAAAAAAAAAAAAAAAAAAAAAAAAAAAAAAAAAAAAAAAAAAAAAAAAAAAAAAAAAAAAAAAAAAAAAAAAAAAAAAAAAAAAAAAAAAAAAAAAAAAAAAAAAAAAAAAAAAAAAAAAAAAAAAAAAAAAAAAAAAAAAAAAAAAAAAAAAAAAAAAAAAAAAAAAAAAAAAAAAAAAAAAAAAAAAAAAAAAAAAAAAAAAAAAAAAAAAAAAAAAAAAAAAAAAAAAAAAAAAAAAAAAAAAAAAAAAAAAAAAAAAAAAAAAAAAAAAAAAAAAAAAAAAAAAAAAAAAAAAAAAAAAAAAAAAAAAAAAAAAAAAAAAAAAAAAAAAAAAAAAAAAAAAAAAAAAAAAAAAAAAAAAAAAAAAAAAAAAAAAAAAAAAAAAAAAAAAAAAAAAAAAAAAAAAAAAAAAAAAAAAAAAAAAAAAAAAAAAAAAAAAAAAAAAAAAAAAAAAAAAAAAAAAAAAAAAAAAAAAAAAAAAAAAAAAAAAAAAAAAAAAAAAAAAAAAAAAAAAAAAAAAAAAAAAAAAAAAAAAAAAAAAAAAAAAAAAAAAAAAAAAAAAAAAAAAAAAAAAAAAAAAAAAAAAAAAAAAAAAAAAAAAAAAAAAAAAAAAAAAAAAAAAAAAAAAAAAAAAAAAAAAAAAAAAAAAAAAAAAAAAAAAAAAAAAAAAAAAAAAAAAAAAAAAAAAAAAAAAAAAAAAAAAAAAAAAAAAAAAAAAAAAAAAAAAAAAAAAAAAAAAAAAAAAAAAAAAAAAAAAAAAAAAAAAAAAAAAAAAAAAAAAAAAAAAAAAAAAAAAAAAAAAAAAAAAAAAAAAAAAAAAAAAAAAAAAAAAAAAAAAAAAAAAAAAAAAAAAAAAAAAAAAAAAAAAAAAAAAAAAAAAAAAAAAAAAAAAAAAAAAAAAAAAAAAAAAAAAAAAAAAAAAAAAAAAAAAAAAAAAAAAAAAAAAAAAAAAAAAAAAAAAAAAAAAAAAAAAAAAAAAAAAAAAAAAAAAAAAAAAAAAAAAAAAAAAAAAAAAAAAAAAAAAAAAAAAAAAAAAAAAAAAAAAAAAAAAAAAAAAAAAAAAAAAAAAAAAAAAAAAAAAAAAAAAAAAAAAAAAAAAAAAAAAAAAAAAAAAAAAAAAAAAAAAAAAAAAAAAAAAAAAAAAAAAAAAAAAAAAAAAAAAAAAAAAAAAAAAAAAAAAAAAAAAAAAAAAAAAAAAAAAAAAAAAAAAAAAAAAAAAAAAAAAAAAAAAAAAAAAAAAAAAAAAAAAAAAAAAAAAAAAAAAAAAAAAAAAAAAAAAAAAAAAAAAAAAAAAAAAAAAAAAAAAAAAAAAAAAAAAAAAAAAAAAAAAAAAAAAAAAAAAAAAAAAAAAAAAAAAAAAAAAAAAAAAAAAAAAAAAAAAAAAAAAAAAAAAAAAAAAAAAAAAAAAAAAAAAAAAAAAAAAAAAAAAAAAAAAAAAAAAAAAAAAAAAAAAAAAAAAAAAAAAAAAAAAAAAAAAAAAAAAAAAAAAAAAAAAAAAAAAAAAAAAAAAAAAAAAAAAAAAAAAAAAAAAAAAAAAAAAAAAAAAAAAAAAAAAAAAAAAAAAAAAAAAAAAAAAAAAAAAAAAAAAAAAAAAAAAAAAAAAAAAAAAAAAAAAAAAAAAAAAAAAAAAAAAAAAAAAAAAAAAAAAAAAAAAAAAAAAAAAAAAAAAAAAAAAAAAAAAAAAAAAAAAAAAAAAAAAAAAAAAAAAAAAAAAAAAAAAAAAAAAAAAAAAAAAAAAAAAAAAAAAAAAAAAAAAAAAAAAAAAAAAAAAAAAAAAAAAAAAAAAAAAAAAAAAAAAAAAAAAAAAAAAAAAAAAAAAAAAAAAAAAAAAAAAAAAAAAAAAAAAAAAAAAAAAAAAAAAAAAAAAAAAAAAAAAAAAAAAAAAAAAAAAAAAAAAAAAAAAAAAAAAAAAAAAAAAAAAAAAAAAAAAAAAAAAAAAAAAAAAAAAAAAAAAAAAAAAAAAAAAAAAAAAAAAAAAAAAAAAAAAAAAAAAAAAAAAAAAAAAAAAAAAAAAAAAAAAAAAAAAAAAAAAAAAAAAAAAAAAAAAAAAAAAAAAAAAAAAAAAAAAAAAAAAAAAAAAAAAAAAAAAAAAAAAAAAAAAAAAAAAAAAAAAAAAAAAAAAAAAAAAAAAAAAAAAAAAAAAAAAAAAAAAAAAAAAAAAAAAAAAAAAAAAAAAAAAAAAAAAAAAAAAAAAAAAAAAAAAAAAAAAAAAAAAAAAAAAAAAAAAAAAAAAAAAAAAAAAAAAAAAAAAAAAAAAAAAAAAAAAAAAAAAAAAAAAAAAAAAAAAAAAAAAAAAAAAAAAAAAAAAAAAAAAAAAAAAAAAAAAAAAAAAAAAAAAAAAAAAAAAAAAAAAAAAAAAAAAAAAAAAAAAAAAAAAAAAAAAAAAAAAAAAAAAAAAAAAAAAAAAAAAAAAAAAAAAAAAAAAAAAAAAAAAAAAAAAAAAAAAAAAAAAAAAAAAAAAAAAAAAAAAAAAAAAAAAAAAAAAAAAAAAAAAAAAAAAAAPZYQGTbO1ljQYEYnX7gnOnuH7hlcUcdNtlw8A+RyQ+rZFfLocvlX7EhexmuOAHG0bG4k8ZANORBAL/BFiH3mQgC8V0=</c2pa:manifest></metadata>
<style>
  .fall { animation: fall linear infinite; }
  .sway { animation: sway ease-in-out infinite alternate; }
  .spin { animation: spin linear infinite; transform-box: fill-box; transform-origin: center; }
  .ring { animation: rot 90s linear infinite; transform-origin: 930px 215px; }
  @keyframes fall { from { transform: translate(0px, 0px); } to { transform: translate(-340px, 470px); } }
  @keyframes sway { from { transform: translateX(-16px); } to { transform: translateX(16px); } }
  @keyframes spin { from { transform: rotate(0deg) scale(1); } to { transform: rotate(360deg) scale(1); } }
  @keyframes rot { to { transform: rotate(360deg); } }
  @media (prefers-reduced-motion: reduce) { .fall, .sway, .spin, .ring { animation: none; } }
</style>
<defs>
  <radialGradient id="glow" cx="930" cy="215" r="520" gradientUnits="userSpaceOnUse">
    <stop offset="0" stop-color="#4a0710"/><stop offset="0.55" stop-color="#18090b"/><stop offset="1" stop-color="#0a0a0a"/>
  </radialGradient>
  <linearGradient id="sun" x1="0" y1="0" x2="0" y2="1">
    <stop offset="0" stop-color="#ff3b4a"/><stop offset="1" stop-color="#b3101f"/>
  </linearGradient>
  <linearGradient id="bar" x1="0" y1="0" x2="1" y2="0"><stop offset="0" stop-color="#e11d2e"/><stop offset="1" stop-color="#e11d2e" stop-opacity="0"/></linearGradient>
  <clipPath id="sky"><rect width="1200" height="340"/></clipPath>
</defs>

<rect width="1200" height="400" fill="#0a0a0a"/>
<rect width="1200" height="400" fill="url(#glow)"/>

<!-- sun, rings, torii -->
<circle cx="930" cy="215" r="236" fill="none" stroke="#fff" stroke-opacity="0.10"/>
<circle class="ring" cx="930" cy="215" r="196" fill="none" stroke="#fff" stroke-opacity="0.5" stroke-width="1.6" stroke-dasharray="1.5 13"/>
<g clip-path="url(#sky)"><circle cx="930" cy="215" r="150" fill="url(#sun)"/></g>
<g fill="#0a0a0a">
  <path d="M758,128 Q930,160 1102,128 L1090,152 Q930,184 770,152 Z"/>
  <rect x="824" y="166" width="212" height="12"/>
  <rect x="921" y="176" width="18" height="46"/>
  <rect x="836" y="222" width="188" height="13"/>
  <path d="M850,176 L870,176 L874,340 L844,340 Z"/>
  <path d="M990,176 L1010,176 L1016,340 L986,340 Z"/>
</g>
<rect y="340" width="1200" height="60" fill="#0a0a0a"/>
<rect y="340" width="1200" height="1.5" fill="#e11d2e"/>

<!-- clean UI frame -->
<g fill="none" stroke="#fff" stroke-opacity="0.45" stroke-width="1.5">
  <path d="M26,48 L26,26 L48,26" /><path d="M1174,48 L1174,26 L1152,26" /><path d="M26,352 L26,374 L48,374" /><path d="M1174,352 L1174,374 L1152,374" />
</g>

<!-- title -->
<path d="M76.5 190.0V121.2H92.5Q101.2 121.2 105.1 124.7Q108.9 128.2 109.2 136.2Q109.3 139.2 109.3 141.5Q109.4 143.7 109.3 145.9Q109.3 148.1 109.2 150.8Q109.0 155.9 107.4 159.1Q105.8 162.4 102.5 164.0L110.2 190.0H98.5L92.1 165.8H87.6V190.0ZM87.6 156.1H92.5Q95.3 156.1 96.7 154.9Q98.0 153.7 98.1 151.3Q98.3 148.7 98.3 146.1Q98.4 143.5 98.3 140.9Q98.3 138.4 98.1 135.7Q98.0 133.3 96.7 132.1Q95.3 131.0 92.5 131.0H87.6Z M119.7 190.0V121.2H130.8V190.0Z M158.2 190.8Q149.4 190.8 145.4 187.2Q141.5 183.6 141.2 175.1Q141.1 173.4 141.1 171.6Q141.1 169.8 141.2 168.0Q141.3 166.2 141.5 164.5H151.9Q151.7 167.8 151.7 171.0Q151.6 174.2 151.9 177.1Q152.1 179.4 153.6 180.6Q155.2 181.7 158.2 181.7Q161.1 181.7 162.5 180.6Q164.0 179.4 164.3 177.1Q164.5 175.5 164.5 173.8Q164.5 172.2 164.5 170.5Q164.4 168.8 164.3 167.3Q164.1 165.0 162.8 163.4Q161.5 161.8 159.2 161.3L152.2 159.7Q148.0 158.7 145.6 156.7Q143.2 154.7 142.1 151.5Q141.0 148.4 140.9 144.1Q140.9 141.9 140.9 140.0Q140.9 138.0 140.9 136.0Q141.1 130.4 142.9 127.0Q144.8 123.6 148.5 122.0Q152.2 120.4 158.2 120.4Q166.9 120.4 170.8 124.0Q174.7 127.6 175.0 136.0Q175.1 138.1 175.1 140.9Q175.0 143.8 174.9 146.4H164.3Q164.4 143.2 164.5 140.1Q164.5 137.1 164.4 134.1Q164.3 131.7 162.7 130.6Q161.2 129.5 158.2 129.5Q155.3 129.5 153.7 130.6Q152.2 131.7 151.9 134.1Q151.7 136.6 151.7 139.1Q151.7 141.5 151.9 144.1Q152.1 146.4 153.1 147.9Q154.1 149.5 156.3 150.0L162.5 151.3Q167.1 152.3 169.9 154.4Q172.6 156.5 173.9 159.7Q175.2 162.9 175.4 167.3Q175.4 168.5 175.4 169.9Q175.4 171.2 175.4 172.5Q175.4 173.9 175.3 175.1Q175.0 183.6 171.0 187.2Q167.0 190.8 158.2 190.8Z M185.5 190.0V121.2H196.5V150.2H207.8V121.2H218.8V190.0H207.8V160.0H196.5V190.0Z M230.3 190.0V121.2H259.1V131.0H241.4V150.2H258.2V160.0H241.4V180.2H259.1V190.0Z M268.5 190.0V121.2H287.3L292.1 143.1L297.1 180.2H300.9L298.9 149.2L298.1 121.2H309.2V190.0H289.5L284.6 166.8L280.7 130.9H276.8L278.6 163.8L279.5 190.0Z M320.7 190.0V121.2H337.3Q346.2 121.2 350.1 124.9Q354.0 128.6 354.2 137.0Q354.3 143.6 354.3 149.6Q354.4 155.6 354.3 161.6Q354.3 167.5 354.2 174.2Q354.0 182.6 350.1 186.3Q346.2 190.0 337.5 190.0ZM331.8 180.2H337.5Q340.3 180.2 341.7 179.0Q343.1 177.8 343.1 175.4Q343.2 170.2 343.3 165.3Q343.4 160.4 343.4 155.6Q343.4 150.7 343.3 145.8Q343.2 140.9 343.1 135.7Q343.1 133.3 341.7 132.1Q340.3 131.0 337.3 131.0H331.8Z M365.1 190.0V121.2H381.1Q389.8 121.2 393.6 124.7Q397.5 128.2 397.8 136.2Q397.9 139.2 397.9 141.5Q397.9 143.7 397.9 145.9Q397.9 148.1 397.8 150.8Q397.6 155.9 396.0 159.1Q394.4 162.4 391.1 164.0L398.8 190.0H387.1L380.7 165.8H376.1V190.0ZM376.1 156.1H381.1Q383.9 156.1 385.3 154.9Q386.6 153.7 386.7 151.3Q386.8 148.7 386.9 146.1Q386.9 143.5 386.9 140.9Q386.8 138.4 386.7 135.7Q386.6 133.3 385.3 132.1Q383.9 131.0 381.1 131.0H376.1Z M405.5 190.0 414.4 121.2H433.9L442.8 190.0H431.4L429.9 174.1H418.4L416.9 190.0ZM419.4 164.3H428.9L427.4 149.3L426.1 131.0H422.2L420.9 149.3Z M489.2 190.8Q480.2 190.8 476.2 187.2Q472.2 183.6 472.0 175.2Q471.9 170.0 471.9 165.1Q471.8 160.3 471.8 155.6Q471.8 150.9 471.9 146.0Q471.9 141.2 472.0 135.9Q472.1 127.9 476.3 124.2Q480.4 120.4 489.2 120.4Q497.9 120.4 502.0 124.2Q506.1 128.0 506.3 136.0Q506.4 137.7 506.4 139.5Q506.4 141.2 506.4 143.0Q506.3 144.8 506.2 146.4H495.2Q495.3 144.6 495.3 142.8Q495.3 140.9 495.3 139.0Q495.3 137.2 495.3 135.3Q495.2 132.2 493.8 130.8Q492.4 129.5 489.2 129.5Q486.0 129.5 484.6 130.8Q483.1 132.2 483.1 135.3Q482.9 140.7 482.9 145.7Q482.8 150.7 482.8 155.6Q482.8 160.5 482.9 165.5Q482.9 170.5 483.1 175.8Q483.1 179.0 484.6 180.3Q486.0 181.7 489.2 181.7Q492.6 181.7 494.0 180.3Q495.5 179.0 495.6 175.8Q495.7 173.9 495.7 172.2Q495.7 170.5 495.7 168.7Q495.7 166.8 495.6 164.5H506.6Q506.7 167.2 506.7 170.0Q506.7 172.8 506.7 175.2Q506.4 183.6 502.4 187.2Q498.3 190.8 489.2 190.8Z M516.7 190.0V121.2H527.8V150.2H539.0V121.2H550.1V190.0H539.0V160.0H527.8V190.0Z M558.8 190.0 567.7 121.2H587.2L596.1 190.0H584.7L583.2 174.1H571.7L570.1 190.0ZM572.7 164.3H582.2L580.7 149.3L579.4 131.0H575.5L574.2 149.3Z M604.8 190.0V121.2H620.8Q629.5 121.2 633.4 124.7Q637.2 128.2 637.5 136.2Q637.6 139.2 637.6 141.5Q637.7 143.7 637.6 145.9Q637.6 148.1 637.5 150.8Q637.3 155.9 635.7 159.1Q634.1 162.4 630.8 164.0L638.5 190.0H626.8L620.4 165.8H615.9V190.0ZM615.9 156.1H620.8Q623.6 156.1 625.0 154.9Q626.3 153.7 626.4 151.3Q626.6 148.7 626.6 146.1Q626.6 143.5 626.6 140.9Q626.6 138.4 626.4 135.7Q626.3 133.3 625.0 132.1Q623.6 131.0 620.8 131.0H615.9Z M656.6 190.0V167.9H655.1L644.5 121.2H655.7L659.2 138.7L660.9 158.8H663.4L665.1 138.7L668.5 121.2H679.8L669.1 167.9H667.7V190.0Z" fill="#fff"/>
<rect x="72" y="214" width="150" height="6" fill="#e11d2e"/>
<rect x="228" y="216.5" width="453" height="1" fill="url(#bar)"/>
<path d="M78.5 262.0Q78.1 262.0 77.9 261.5L74.3 250.3Q74.3 250.1 74.4 249.8Q74.6 249.5 74.9 249.5Q75.1 249.5 75.3 249.6Q75.4 249.8 75.5 250.0L78.8 260.2H78.4L81.6 250.0Q81.6 249.8 81.8 249.7Q82.0 249.5 82.2 249.5Q82.5 249.5 82.7 249.7Q82.9 249.8 82.9 250.0L86.0 260.2H85.7L89.0 250.0Q89.1 249.8 89.2 249.7Q89.4 249.5 89.6 249.5Q89.9 249.5 90.1 249.8Q90.2 250.0 90.1 250.3L86.5 261.5Q86.4 262.0 85.9 262.0H85.9Q85.4 262.0 85.2 261.5L82.0 251.2H82.4L79.2 261.5Q79.1 261.8 78.9 261.9Q78.8 262.0 78.5 262.0Z M98.0 261.9Q97.4 261.7 97.7 261.2L102.3 250.0Q102.5 249.5 103.0 249.5H103.0Q103.5 249.6 103.7 250.0L108.3 261.2Q108.6 261.7 108.0 261.9Q107.5 262.2 107.2 261.6L106.1 258.8H99.9L98.8 261.6Q98.6 262.2 98.0 261.9ZM100.4 257.6H105.6L103.0 251.4Z M117.9 262.0Q117.3 262.0 117.3 261.4V250.1Q117.3 249.5 117.9 249.5Q118.2 249.5 118.5 249.9L126.5 260.1H126.2V250.1Q126.2 249.5 126.8 249.5Q127.4 249.5 127.4 250.1V261.4Q127.4 262.0 126.8 262.0Q126.4 262.0 126.2 261.6L118.2 251.5H118.5V261.4Q118.5 262.0 117.9 262.0Z M138.1 262.0Q137.6 262.0 137.6 261.4V250.1Q137.6 249.5 138.1 249.5H142.7Q145.1 249.5 146.2 250.7Q147.4 251.8 147.4 254.2V257.4Q147.4 259.8 146.2 260.9Q145.1 262.0 142.7 262.0ZM138.7 260.8H142.7Q144.0 260.8 144.8 260.5Q145.5 260.1 145.8 259.4Q146.2 258.6 146.2 257.4V254.2Q146.2 252.9 145.8 252.2Q145.5 251.4 144.8 251.1Q144.0 250.7 142.7 250.7H138.7Z M157.8 262.0Q157.2 262.0 157.2 261.4V250.1Q157.2 249.5 157.8 249.5H164.8Q165.4 249.5 165.4 250.1Q165.4 250.7 164.8 250.7H158.4V255.1H162.6Q163.2 255.1 163.2 255.7Q163.2 256.3 162.6 256.3H158.4V260.8H164.8Q165.4 260.8 165.4 261.4Q165.4 262.0 164.8 262.0Z M182.9 262.0Q182.7 262.2 182.5 262.1Q182.3 262.1 182.1 261.8L179.1 256.9H175.8V261.4Q175.8 262.0 175.2 262.0Q174.6 262.0 174.6 261.4V250.1Q174.6 249.5 175.2 249.5H179.7Q181.4 249.5 182.2 250.4Q183.1 251.3 183.1 252.9V253.5Q183.1 255.0 182.4 255.8Q181.7 256.7 180.4 256.8L183.1 261.2Q183.4 261.7 182.9 262.0ZM175.8 255.7H179.7Q180.9 255.7 181.4 255.2Q181.9 254.7 181.9 253.5V252.9Q181.9 251.8 181.4 251.3Q180.9 250.7 179.7 250.7H175.8Z M193.2 262.0Q192.6 262.0 192.6 261.4V250.1Q192.6 249.5 193.2 249.5H200.2Q200.8 249.5 200.8 250.1Q200.8 250.7 200.2 250.7H193.8V255.1H198.0Q198.6 255.1 198.6 255.7Q198.6 256.3 198.0 256.3H193.8V260.8H200.2Q200.8 260.8 200.8 261.4Q200.8 262.0 200.2 262.0Z M218.3 262.0Q218.1 262.2 217.9 262.1Q217.7 262.1 217.5 261.8L214.4 256.9H211.2V261.4Q211.2 262.0 210.6 262.0Q210.0 262.0 210.0 261.4V250.1Q210.0 249.5 210.6 249.5H215.1Q216.7 249.5 217.6 250.4Q218.5 251.3 218.5 252.9V253.5Q218.5 255.0 217.8 255.8Q217.1 256.7 215.8 256.8L218.5 261.2Q218.8 261.7 218.3 262.0ZM211.2 255.7H215.1Q216.2 255.7 216.8 255.2Q217.3 254.7 217.3 253.5V252.9Q217.3 251.8 216.8 251.3Q216.2 250.7 215.1 250.7H211.2Z M243.4 262.0Q241.3 262.0 240.3 261.0Q239.3 260.0 239.3 257.9V253.6Q239.3 251.5 240.3 250.5Q241.3 249.5 243.4 249.5H245.7Q247.8 249.5 248.8 250.5Q249.7 251.5 249.7 253.6V257.9Q249.7 260.0 248.8 261.0Q247.8 262.0 245.7 262.0ZM243.4 260.8H245.7Q246.8 260.8 247.4 260.5Q248.0 260.3 248.3 259.6Q248.5 259.0 248.5 257.9V253.6Q248.5 252.5 248.3 251.9Q248.0 251.3 247.4 251.0Q246.8 250.7 245.7 250.7H243.4Q242.3 250.7 241.7 251.0Q241.1 251.3 240.8 251.9Q240.5 252.5 240.5 253.6V257.9Q240.5 259.0 240.8 259.6Q241.1 260.3 241.7 260.5Q242.3 260.8 243.4 260.8Z M260.2 262.0Q259.6 262.0 259.6 261.4V250.1Q259.6 249.5 260.2 249.5H267.1Q267.4 249.5 267.5 249.7Q267.7 249.9 267.7 250.1Q267.7 250.7 267.1 250.7H260.8V255.1H265.0Q265.6 255.1 265.6 255.7Q265.6 256.3 265.0 256.3H260.8V261.4Q260.8 262.0 260.2 262.0Z M291.4 262.0Q289.3 262.0 288.4 261.0Q287.4 260.0 287.4 257.9V253.6Q287.4 251.5 288.4 250.5Q289.4 249.5 291.4 249.5H293.7Q295.8 249.5 296.8 250.5Q297.8 251.5 297.8 253.6V257.9Q297.8 260.0 296.8 261.0Q295.8 262.0 293.7 262.0ZM291.4 260.8H293.7Q294.8 260.8 295.4 260.5Q296.0 260.3 296.3 259.6Q296.6 259.0 296.6 257.9V253.6Q296.6 252.5 296.3 251.9Q296.0 251.3 295.4 251.0Q294.8 250.7 293.7 250.7H291.4Q290.4 250.7 289.7 251.0Q289.1 251.3 288.9 251.9Q288.6 252.5 288.6 253.6V257.9Q288.6 259.0 288.9 259.6Q289.1 260.3 289.8 260.5Q290.4 260.8 291.4 260.8Z M315.9 262.0Q315.7 262.2 315.5 262.1Q315.3 262.1 315.1 261.8L312.0 256.9H308.8V261.4Q308.8 262.0 308.2 262.0Q307.6 262.0 307.6 261.4V250.1Q307.6 249.5 308.2 249.5H312.7Q314.3 249.5 315.2 250.4Q316.1 251.3 316.1 252.9V253.5Q316.1 255.0 315.4 255.8Q314.7 256.7 313.4 256.8L316.1 261.2Q316.4 261.7 315.9 262.0ZM308.8 255.7H312.7Q313.9 255.7 314.4 255.2Q314.9 254.7 314.9 253.5V252.9Q314.9 251.8 314.4 251.3Q313.9 250.7 312.7 250.7H308.8Z M329.3 262.0Q327.2 262.0 326.3 261.0Q325.3 260.0 325.3 257.9V253.6Q325.3 251.5 326.3 250.5Q327.2 249.5 329.3 249.5H331.6Q333.4 249.5 334.3 250.3Q335.2 251.0 335.3 252.6Q335.3 252.9 335.1 253.1Q335.0 253.2 334.7 253.2Q334.1 253.2 334.1 252.6Q334.0 251.5 333.4 251.1Q332.9 250.7 331.6 250.7H329.3Q328.3 250.7 327.6 251.0Q327.0 251.3 326.8 251.9Q326.5 252.5 326.5 253.6V257.9Q326.5 259.0 326.8 259.6Q327.0 260.3 327.6 260.5Q328.3 260.8 329.3 260.8H331.6Q332.9 260.8 333.4 260.4Q334.0 260.0 334.1 258.9Q334.1 258.3 334.7 258.3Q335.0 258.3 335.1 258.5Q335.3 258.6 335.3 258.9Q335.2 260.5 334.3 261.3Q333.4 262.0 331.6 262.0Z M345.5 262.0Q345.3 262.0 345.1 261.8Q344.9 261.7 344.9 261.4V250.1Q344.9 249.9 345.1 249.7Q345.3 249.5 345.5 249.5Q345.8 249.5 346.0 249.7Q346.1 249.9 346.1 250.1V255.1H354.0V250.1Q354.0 249.9 354.2 249.7Q354.4 249.5 354.6 249.5Q354.9 249.5 355.1 249.7Q355.2 249.9 355.2 250.1V261.4Q355.2 261.7 355.1 261.8Q354.9 262.0 354.6 262.0Q354.4 262.0 354.2 261.8Q354.0 261.7 354.0 261.4V256.3H346.1V261.4Q346.1 261.7 346.0 261.8Q345.8 262.0 345.5 262.0Z M366.0 262.0Q365.4 262.0 365.4 261.4V250.1Q365.4 249.5 366.0 249.5H373.0Q373.6 249.5 373.6 250.1Q373.6 250.7 373.0 250.7H366.6V255.1H370.8Q371.4 255.1 371.4 255.7Q371.4 256.3 370.8 256.3H366.6V260.8H373.0Q373.6 260.8 373.6 261.4Q373.6 262.0 373.0 262.0Z M386.0 262.0Q384.3 262.0 383.5 261.3Q382.6 260.5 382.5 259.0Q382.5 258.7 382.7 258.6Q382.8 258.4 383.1 258.4Q383.4 258.4 383.5 258.5Q383.7 258.7 383.7 259.0Q383.8 260.0 384.3 260.4Q384.8 260.8 386.0 260.8H388.8Q390.1 260.8 390.6 260.3Q391.1 259.8 391.1 258.5Q391.1 257.2 390.6 256.7Q390.0 256.2 388.8 256.2H386.2Q384.5 256.2 383.7 255.4Q382.9 254.6 382.9 252.9Q382.9 251.2 383.7 250.3Q384.5 249.5 386.2 249.5H388.7Q390.3 249.5 391.1 250.2Q391.9 250.9 392.0 252.3Q392.1 252.6 391.9 252.8Q391.7 253.0 391.4 253.0Q391.2 253.0 391.0 252.8Q390.9 252.7 390.8 252.4Q390.8 251.5 390.3 251.1Q389.8 250.7 388.7 250.7H386.2Q385.0 250.7 384.5 251.2Q384.1 251.7 384.1 252.9Q384.1 254.1 384.6 254.5Q385.0 255.0 386.2 255.0H388.8Q390.5 255.0 391.4 255.8Q392.3 256.7 392.3 258.5Q392.3 260.3 391.4 261.1Q390.6 262.0 388.8 262.0Z M405.8 262.0Q405.5 262.0 405.4 261.9Q405.2 261.7 405.2 261.4V250.7H401.3Q401.0 250.7 400.9 250.6Q400.7 250.4 400.7 250.1Q400.7 249.9 400.9 249.7Q401.0 249.5 401.3 249.5H410.3Q410.6 249.5 410.8 249.7Q410.9 249.9 410.9 250.1Q410.9 250.4 410.8 250.6Q410.6 250.7 410.3 250.7H406.4V261.4Q406.4 261.7 406.3 261.8Q406.1 262.0 405.8 262.0Z M428.0 262.0Q427.7 262.2 427.5 262.1Q427.3 262.1 427.2 261.8L424.1 256.9H420.9V261.4Q420.9 262.0 420.3 262.0Q419.7 262.0 419.7 261.4V250.1Q419.7 249.5 420.3 249.5H424.7Q426.4 249.5 427.3 250.4Q428.1 251.3 428.1 252.9V253.5Q428.1 255.0 427.5 255.8Q426.8 256.7 425.5 256.8L428.2 261.2Q428.5 261.7 428.0 262.0ZM420.9 255.7H424.7Q425.9 255.7 426.4 255.2Q426.9 254.7 426.9 253.5V252.9Q426.9 251.8 426.4 251.3Q425.9 250.7 424.7 250.7H420.9Z M436.8 261.9Q436.3 261.7 436.5 261.2L441.1 250.0Q441.3 249.5 441.8 249.5H441.9Q442.3 249.6 442.5 250.0L447.2 261.2Q447.4 261.7 446.8 261.9Q446.3 262.2 446.1 261.6L444.9 258.8H438.8L437.6 261.6Q437.4 262.2 436.8 261.9ZM439.2 257.6H444.4L441.8 251.4Z M459.9 262.0Q459.6 262.0 459.4 261.9Q459.3 261.7 459.3 261.4V250.7H455.3Q455.0 250.7 454.9 250.6Q454.7 250.4 454.7 250.1Q454.7 249.9 454.9 249.7Q455.0 249.5 455.3 249.5H464.4Q464.7 249.5 464.8 249.7Q465.0 249.9 465.0 250.1Q465.0 250.4 464.8 250.6Q464.7 250.7 464.4 250.7H460.5V261.4Q460.5 261.7 460.3 261.8Q460.1 262.0 459.9 262.0Z M474.3 262.0Q474.1 262.0 473.9 261.8Q473.7 261.7 473.7 261.4V250.1Q473.7 249.8 473.9 249.7Q474.1 249.5 474.3 249.5Q474.6 249.5 474.8 249.7Q474.9 249.8 474.9 250.1V261.4Q474.9 261.7 474.8 261.8Q474.6 262.0 474.3 262.0Z M488.9 262.0Q486.8 262.0 485.8 261.0Q484.8 260.0 484.8 257.9V253.6Q484.8 251.5 485.8 250.5Q486.8 249.5 488.8 249.5H491.1Q493.2 249.5 494.2 250.5Q495.2 251.5 495.2 253.6V257.9Q495.2 260.0 494.2 261.0Q493.2 262.0 491.1 262.0ZM488.9 260.8H491.1Q492.2 260.8 492.8 260.5Q493.5 260.3 493.7 259.6Q494.0 259.0 494.0 257.9V253.6Q494.0 252.5 493.7 251.9Q493.5 251.3 492.8 251.0Q492.2 250.7 491.1 250.7H488.8Q487.8 250.7 487.2 251.0Q486.5 251.3 486.3 251.9Q486.0 252.5 486.0 253.6V257.9Q486.0 259.0 486.3 259.6Q486.5 260.3 487.2 260.5Q487.8 260.8 488.9 260.8Z M505.7 262.0Q505.1 262.0 505.1 261.4V250.1Q505.1 249.5 505.7 249.5Q506.0 249.5 506.3 249.9L514.2 260.1H513.9V250.1Q513.9 249.5 514.5 249.5Q515.1 249.5 515.1 250.1V261.4Q515.1 262.0 514.5 262.0Q514.2 262.0 513.9 261.6L506.0 251.5H506.3V261.4Q506.3 262.0 505.7 262.0Z" fill="#fff"/>
<path d="M83.0 288.7H84.1V291.6H87.6V292.6H84.2V299.1Q84.2 300.3 82.8 300.3Q81.8 300.3 80.8 300.2L80.5 299.0Q81.7 299.2 82.5 299.2Q83.1 299.2 83.1 298.6V293.3Q81.1 297.1 77.0 299.0L76.2 298.1Q80.1 296.5 82.3 292.7H76.7V291.7H83.0Z M95.8 293.9H107.7V295.1H95.8Z M126.9 292.6H123.6Q123.6 295.5 122.6 297.2Q121.5 299.3 119.0 300.6L118.2 299.7Q120.8 298.5 121.8 296.3Q122.4 294.9 122.4 292.6H118.9Q118.0 294.4 116.4 296.0L115.5 295.2Q118.2 292.7 119.0 288.7L120.1 289.0Q119.8 290.3 119.4 291.5H126.9Z M143.4 289.8 144.2 290.6Q143.3 293.0 141.8 295.1Q144.1 296.8 146.3 299.0L145.4 300.0Q143.1 297.5 141.1 296.0Q141.0 296.1 141.0 296.2Q140.9 296.2 140.9 296.2Q140.9 296.2 140.9 296.2Q138.7 298.7 135.9 300.1L135.0 299.1Q140.6 296.7 142.8 290.9L136.3 291.0L136.3 289.9Z M158.2 288.7H159.4V292.7Q162.3 294.1 164.8 295.7L164.1 296.9Q161.6 295.1 159.4 293.9V300.4H158.2Z M176.0 289.3H177.2V298.6Q181.7 296.9 184.2 293.4L184.9 294.5Q183.7 296.2 181.4 297.7Q179.1 299.2 176.9 300.1L176.0 299.4Z M193.3 293.9H205.2V295.1H193.3Z M217.8 292.0Q216.4 290.8 215.0 290.1L215.7 289.2Q217.0 289.8 218.5 291.0ZM214.0 298.9Q220.3 297.5 223.4 292.0L224.2 292.9Q221.1 298.4 214.7 300.0ZM216.0 294.9Q214.7 293.7 213.2 293.0L213.9 292.0Q215.4 292.7 216.8 293.8Z M234.7 292.1H241.5V300.0H240.5V299.3H234.5V298.3H240.5V296.1H235.0V295.1H240.5V293.1H234.7Z M256.0 293.0Q254.6 291.7 252.9 290.7L253.6 289.8Q255.2 290.5 256.9 291.9ZM253.0 298.6Q259.5 297.5 262.3 291.3L263.2 292.1Q260.5 298.2 253.7 299.8Z M277.1 298.9Q282.0 298.3 282.0 294.5Q282.0 292.2 280.0 291.1Q279.2 290.7 278.0 290.6Q277.7 294.3 276.5 296.8Q275.3 299.3 273.9 299.3Q273.1 299.3 272.5 298.5Q271.4 297.2 271.4 295.5Q271.4 293.1 273.2 291.4Q274.9 289.7 277.8 289.7Q279.8 289.7 281.2 290.7Q283.2 292.1 283.2 294.5Q283.2 299.0 277.8 300.0ZM276.9 290.6Q275.4 290.8 274.3 291.8Q272.5 293.2 272.5 295.5Q272.5 296.9 273.2 297.8Q273.6 298.2 273.9 298.2Q274.6 298.2 275.5 296.3Q276.6 294.0 276.9 290.6Z M293.0 291.2V293.0V293.3H295.5Q295.4 298.5 295.1 300.0Q294.9 300.9 293.8 300.9Q293.2 300.9 292.6 300.8L292.5 299.8Q293.1 299.9 293.6 299.9Q294.1 299.9 294.2 299.3Q294.4 297.4 294.5 294.2H293.0L293.0 294.4Q292.7 298.5 290.8 301.1L290.1 300.3Q292.1 297.7 292.1 293.0V291.2H290.4V290.3H292.6V288.0H293.6V290.3H296.3V291.2ZM299.0 294.1 298.8 294.2 298.6 294.3 298.3 294.4V301.0H297.3V294.7Q296.7 294.9 296.1 295.1L295.6 294.2Q298.9 293.4 301.6 291.7L302.4 292.4Q301.1 293.2 299.8 293.8Q300.0 294.9 300.4 296.0Q301.3 295.1 302.0 294.1L302.9 294.7Q301.9 295.8 300.8 296.8Q301.7 298.5 303.4 299.7L302.6 300.7Q299.7 298.1 299.0 294.1ZM297.9 290.1H303.0V291.0H297.5Q296.8 292.4 296.1 293.4L295.4 292.6Q296.9 290.8 297.6 287.9L298.6 288.2Q298.2 289.4 297.9 290.1Z M316.8 288.5V289.4Q316.8 292.9 318.2 295.3Q319.6 297.7 322.7 299.4L321.8 300.5Q318.9 298.7 317.3 295.8Q316.7 294.8 316.3 293.2Q315.4 298.3 310.9 300.7L310.0 299.8Q313.2 298.3 314.5 295.5Q315.6 293.3 315.6 289.5V288.5Z" fill="#e11d2e"/>
<path d="M77.6 376.4Q76.8 376.4 76.5 376.1Q76.1 375.8 76.0 375.2Q76.0 375.0 76.1 374.9Q76.2 374.8 76.4 374.8Q76.5 374.8 76.6 374.9Q76.7 375.0 76.7 375.2Q76.8 375.4 77.0 375.5Q77.2 375.6 77.6 375.6H79.8Q80.3 375.6 80.5 375.5Q80.6 375.3 80.6 374.8V373.2Q80.4 373.6 79.9 373.8Q79.4 374.0 78.6 374.0H78.2Q77.0 374.0 76.5 373.5Q76.0 372.9 76.0 371.8V370.4Q76.0 369.3 76.5 368.7Q77.0 368.2 78.2 368.2H79.2Q79.7 368.2 80.1 368.3Q80.4 368.5 80.6 368.8V368.6Q80.6 368.2 81.0 368.2Q81.4 368.2 81.4 368.6V374.8Q81.4 375.6 81.0 376.0Q80.6 376.4 79.8 376.4ZM78.2 373.2H78.6Q79.5 373.2 80.1 373.0Q80.6 372.7 80.6 372.2V370.0Q80.6 369.4 80.3 369.2Q79.9 368.9 79.2 368.9H78.2Q77.4 368.9 77.0 369.3Q76.7 369.6 76.7 370.4V371.8Q76.7 372.6 77.0 372.9Q77.4 373.2 78.2 373.2Z M85.8 367.1Q85.4 367.1 85.4 366.7V366.4Q85.4 365.9 85.8 365.9H86.1Q86.6 365.9 86.6 366.4V366.7Q86.6 367.1 86.1 367.1ZM86.0 374.0Q85.6 374.0 85.6 373.6V368.6Q85.6 368.2 86.0 368.2Q86.4 368.2 86.4 368.6V373.6Q86.4 374.0 86.0 374.0Z M93.1 374.0Q92.0 374.0 91.4 373.5Q90.9 372.9 90.9 371.8V368.9H90.2Q89.9 368.9 89.9 368.6Q89.9 368.2 90.2 368.2H90.9V367.0Q90.9 366.7 91.3 366.7Q91.7 366.7 91.7 367.0V368.2H93.1Q93.5 368.2 93.5 368.6Q93.5 368.9 93.1 368.9H91.7V371.8Q91.7 372.6 92.0 372.9Q92.3 373.2 93.1 373.2Q93.3 373.2 93.4 373.3Q93.5 373.4 93.5 373.6Q93.5 374.0 93.1 374.0Z M97.6 374.0Q97.2 374.0 97.2 373.6V366.0Q97.2 365.6 97.6 365.6Q98.0 365.6 98.0 366.0V369.0Q98.6 368.2 100.0 368.2H100.3Q101.5 368.2 102.0 368.7Q102.6 369.3 102.6 370.4V373.6Q102.6 374.0 102.2 374.0Q101.8 374.0 101.8 373.6V370.4Q101.8 369.6 101.5 369.3Q101.2 368.9 100.3 368.9H100.0Q99.1 368.9 98.6 369.2Q98.1 369.5 98.0 370.0V373.6Q98.0 374.0 97.6 374.0Z M111.6 368.2Q112.0 368.2 112.0 368.6V373.6Q112.0 374.0 111.6 374.0Q111.2 374.0 111.2 373.6V373.2Q110.6 374.0 109.2 374.0H108.9Q107.7 374.0 107.2 373.5Q106.7 372.9 106.7 371.8V368.6Q106.7 368.2 107.0 368.2Q107.4 368.2 107.4 368.6V371.8Q107.4 372.6 107.7 372.9Q108.0 373.2 108.9 373.2H109.2Q110.1 373.2 110.6 373.0Q111.1 372.7 111.2 372.2V368.6Q111.2 368.2 111.6 368.2Z M116.7 374.0Q116.3 374.0 116.3 373.6V366.0Q116.3 365.6 116.7 365.6Q117.1 365.6 117.1 366.0V369.0Q117.3 368.6 117.8 368.4Q118.3 368.2 119.1 368.2H119.5Q120.7 368.2 121.2 368.7Q121.7 369.3 121.7 370.4V371.8Q121.7 372.9 121.2 373.5Q120.7 374.0 119.5 374.0H119.1Q118.3 374.0 117.8 373.8Q117.3 373.6 117.1 373.2V373.6Q117.1 374.0 116.7 374.0ZM119.1 373.2H119.5Q120.3 373.2 120.7 372.9Q121.0 372.6 121.0 371.8V370.4Q121.0 369.6 120.7 369.3Q120.3 368.9 119.5 368.9H119.1Q118.2 368.9 117.6 369.2Q117.1 369.5 117.1 370.0V372.2Q117.1 372.7 117.6 373.0Q118.2 373.2 119.1 373.2Z M126.0 374.0Q125.6 374.0 125.6 373.6V373.4Q125.6 373.0 126.0 373.0H126.3Q126.6 373.0 126.6 373.4V373.6Q126.6 374.0 126.3 374.0Z M132.7 374.0Q131.6 374.0 131.1 373.5Q130.5 372.9 130.5 371.8V370.4Q130.5 369.3 131.1 368.7Q131.6 368.2 132.7 368.2H133.7Q134.6 368.2 135.1 368.5Q135.6 368.8 135.7 369.4Q135.7 369.6 135.6 369.7Q135.5 369.8 135.3 369.8Q135.1 369.8 135.1 369.7Q135.0 369.6 134.9 369.5Q134.8 369.2 134.6 369.1Q134.3 368.9 133.7 368.9H132.7Q131.9 368.9 131.6 369.3Q131.3 369.6 131.3 370.4V371.8Q131.3 372.6 131.6 372.9Q131.9 373.2 132.7 373.2H133.7Q134.3 373.2 134.6 373.1Q134.8 373.0 134.9 372.7Q135.0 372.5 135.1 372.5Q135.1 372.4 135.3 372.4Q135.5 372.4 135.6 372.5Q135.7 372.6 135.7 372.8Q135.6 373.4 135.1 373.7Q134.6 374.0 133.7 374.0Z M141.7 374.0Q140.6 374.0 140.0 373.5Q139.5 372.9 139.5 371.8V370.4Q139.5 369.3 140.0 368.7Q140.6 368.2 141.7 368.2H142.7Q143.8 368.2 144.4 368.7Q144.9 369.3 144.9 370.4V371.8Q144.9 372.9 144.4 373.5Q143.8 374.0 142.7 374.0ZM140.2 371.8Q140.2 372.6 140.6 372.9Q140.9 373.2 141.7 373.2H142.7Q143.5 373.2 143.8 372.9Q144.2 372.6 144.2 371.8V370.4Q144.2 369.6 143.8 369.3Q143.5 368.9 142.7 368.9H141.7Q141.2 368.9 140.8 369.1Q140.5 369.2 140.4 369.5Q140.2 369.9 140.2 370.4Z M155.5 368.2Q156.5 368.2 157.0 368.7Q157.4 369.2 157.4 370.4V373.6Q157.4 374.0 157.0 374.0Q156.7 374.0 156.7 373.6V370.4Q156.7 369.6 156.4 369.3Q156.1 368.9 155.5 368.9H155.0Q154.3 368.9 153.9 369.3Q153.6 369.6 153.6 370.4V373.6Q153.6 374.0 153.2 374.0Q152.8 374.0 152.8 373.6V370.4Q152.8 369.6 152.6 369.3Q152.3 368.9 151.7 368.9H151.2Q150.5 368.9 150.1 369.3Q149.8 369.6 149.8 370.4V373.6Q149.8 374.0 149.4 374.0Q149.0 374.0 149.0 373.6V368.6Q149.0 368.2 149.4 368.2Q149.8 368.2 149.8 368.6V369.0Q150.1 368.6 150.5 368.4Q150.8 368.2 151.4 368.2H151.7Q152.4 368.2 152.8 368.4Q153.2 368.6 153.4 369.1Q153.7 368.6 154.0 368.4Q154.4 368.2 155.0 368.2Z M161.4 375.7Q161.1 375.7 161.0 375.6Q160.9 375.4 161.0 375.2L163.5 365.7Q163.5 365.4 163.8 365.4Q164.0 365.4 164.1 365.5Q164.2 365.6 164.2 365.9L161.7 375.4Q161.7 375.7 161.4 375.7Z M168.0 374.0Q167.6 374.0 167.6 373.6V368.6Q167.6 368.2 168.0 368.2Q168.4 368.2 168.4 368.6V369.3Q168.7 368.8 169.3 368.5Q169.9 368.2 170.7 368.2Q171.0 368.2 171.0 368.6Q171.0 368.9 170.7 368.9Q169.6 368.9 169.0 369.4Q168.4 369.8 168.4 370.7V373.6Q168.4 374.0 168.0 374.0Z M174.7 374.0Q174.4 374.0 174.4 373.6V368.6Q174.4 368.2 174.7 368.2Q175.1 368.2 175.1 368.6V369.3Q175.4 368.8 176.0 368.5Q176.6 368.2 177.4 368.2Q177.8 368.2 177.8 368.6Q177.8 368.9 177.4 368.9Q176.3 368.9 175.7 369.4Q175.2 369.8 175.1 370.7V373.6Q175.1 374.0 174.7 374.0Z M181.3 367.1Q180.8 367.1 180.8 366.7V366.4Q180.8 365.9 181.3 365.9H181.6Q182.1 365.9 182.1 366.4V366.7Q182.1 367.1 181.6 367.1ZM181.5 374.0Q181.1 374.0 181.1 373.6V368.6Q181.1 368.2 181.5 368.2Q181.8 368.2 181.8 368.6V373.6Q181.8 374.0 181.5 374.0Z M187.5 374.0Q186.7 374.0 186.3 373.7Q185.9 373.4 185.8 372.7Q185.8 372.5 185.9 372.4Q186.0 372.3 186.2 372.3Q186.4 372.3 186.5 372.4Q186.5 372.5 186.6 372.7Q186.6 373.0 186.8 373.1Q187.0 373.2 187.5 373.2H189.4Q190.0 373.2 190.2 373.0Q190.4 372.9 190.4 372.3Q190.4 371.8 190.2 371.6Q190.0 371.4 189.4 371.4H187.5Q186.7 371.4 186.3 371.0Q185.9 370.6 185.9 369.8Q185.9 369.0 186.3 368.6Q186.7 368.2 187.5 368.2H189.4Q190.8 368.2 190.9 369.4Q191.0 369.6 190.9 369.7Q190.8 369.8 190.6 369.8Q190.4 369.8 190.3 369.7Q190.2 369.6 190.2 369.4Q190.1 369.1 189.9 369.0Q189.8 368.9 189.4 368.9H187.5Q187.0 368.9 186.8 369.1Q186.6 369.3 186.6 369.8Q186.6 370.3 186.8 370.5Q187.0 370.6 187.5 370.6H189.4Q190.3 370.6 190.7 371.1Q191.1 371.5 191.1 372.3Q191.1 373.2 190.7 373.6Q190.3 374.0 189.4 374.0Z M195.5 374.0Q195.1 374.0 195.1 373.6V366.0Q195.1 365.6 195.5 365.6Q195.8 365.6 195.8 366.0V369.0Q196.4 368.2 197.8 368.2H198.2Q199.3 368.2 199.9 368.7Q200.4 369.3 200.4 370.4V373.6Q200.4 374.0 200.0 374.0Q199.6 374.0 199.6 373.6V370.4Q199.6 369.6 199.3 369.3Q199.0 368.9 198.2 368.9H197.8Q197.0 368.9 196.4 369.2Q195.9 369.5 195.8 370.0V373.6Q195.8 374.0 195.5 374.0Z M205.2 371.4V371.8Q205.2 372.6 205.5 372.9Q205.8 373.2 206.6 373.2H207.6Q208.3 373.2 208.7 373.1Q209.0 372.9 209.1 372.5Q209.1 372.3 209.2 372.2Q209.3 372.1 209.5 372.1Q209.6 372.1 209.7 372.2Q209.8 372.3 209.8 372.5Q209.7 373.3 209.2 373.6Q208.6 374.0 207.6 374.0H206.6Q205.5 374.0 204.9 373.5Q204.4 372.9 204.4 371.8V370.4Q204.4 369.3 204.9 368.7Q205.5 368.2 206.6 368.2H207.6Q208.8 368.2 209.3 368.7Q209.8 369.3 209.8 370.4V371.0Q209.8 371.4 209.5 371.4ZM206.6 368.9Q205.8 368.9 205.5 369.3Q205.2 369.6 205.2 370.4V370.6H209.1V370.4Q209.1 369.6 208.8 369.3Q208.4 368.9 207.6 368.9Z M214.3 374.0Q214.0 374.0 214.0 373.6V368.6Q214.0 368.2 214.3 368.2Q214.7 368.2 214.7 368.6V369.0Q215.3 368.2 216.7 368.2H217.1Q218.2 368.2 218.7 368.7Q219.3 369.3 219.3 370.4V373.6Q219.3 374.0 218.9 374.0Q218.5 374.0 218.5 373.6V370.4Q218.5 369.6 218.2 369.3Q217.9 368.9 217.1 368.9H216.7Q215.9 368.9 215.3 369.2Q214.8 369.5 214.7 370.0V373.6Q214.7 374.0 214.3 374.0Z M225.5 374.0Q224.4 374.0 223.8 373.5Q223.3 372.9 223.3 371.8V370.4Q223.3 369.3 223.8 368.7Q224.4 368.2 225.5 368.2H228.0V366.0Q228.0 365.6 228.3 365.6Q228.7 365.6 228.7 366.0V373.6Q228.7 374.0 228.3 374.0Q228.0 374.0 228.0 373.6V373.2Q227.7 373.6 227.2 373.8Q226.7 374.0 226.0 374.0ZM225.5 373.2H226.0Q226.9 373.2 227.4 373.0Q228.0 372.7 228.0 372.2V368.9H225.5Q224.7 368.9 224.4 369.3Q224.0 369.6 224.0 370.4V371.8Q224.0 372.6 224.4 372.9Q224.7 373.2 225.5 373.2Z M233.3 374.0Q232.9 374.0 232.9 373.6V368.6Q232.9 368.2 233.3 368.2Q233.7 368.2 233.7 368.6V369.3Q234.0 368.8 234.6 368.5Q235.2 368.2 236.0 368.2Q236.3 368.2 236.3 368.6Q236.3 368.9 236.0 368.9Q234.9 368.9 234.3 369.4Q233.8 369.8 233.7 370.7V373.6Q233.7 374.0 233.3 374.0Z M241.4 374.0Q240.5 374.0 240.0 373.5Q239.5 373.1 239.5 372.1Q239.5 371.2 240.0 370.7Q240.5 370.3 241.4 370.3H244.1Q244.1 369.5 243.7 369.2Q243.4 368.9 242.6 368.9H241.9Q241.2 368.9 240.9 369.1Q240.5 369.2 240.4 369.5Q240.4 369.7 240.3 369.8Q240.2 369.9 240.0 369.9Q239.8 369.9 239.7 369.8Q239.6 369.7 239.7 369.5Q239.8 368.8 240.3 368.5Q240.9 368.2 241.9 368.2H242.6Q243.8 368.2 244.3 368.7Q244.8 369.3 244.8 370.4V373.6Q244.8 374.0 244.5 374.0Q244.1 374.0 244.1 373.6V373.1Q243.5 374.0 242.1 374.0ZM241.4 373.2H242.1Q242.6 373.2 243.0 373.1Q243.5 373.0 243.7 372.8Q244.0 372.5 244.1 372.0V371.0H241.4Q240.8 371.0 240.5 371.3Q240.3 371.5 240.3 372.1Q240.3 372.8 240.5 373.0Q240.8 373.2 241.4 373.2Z M251.1 374.0Q249.9 374.0 249.4 373.5Q248.8 372.9 248.8 371.8V370.4Q248.8 369.3 249.4 368.7Q249.9 368.2 251.1 368.2H252.1Q252.9 368.2 253.4 368.5Q253.9 368.8 254.0 369.4Q254.0 369.6 253.9 369.7Q253.8 369.8 253.6 369.8Q253.5 369.8 253.4 369.7Q253.3 369.6 253.2 369.5Q253.2 369.2 252.9 369.1Q252.6 368.9 252.1 368.9H251.1Q250.2 368.9 249.9 369.3Q249.6 369.6 249.6 370.4V371.8Q249.6 372.6 249.9 372.9Q250.2 373.2 251.1 373.2H252.1Q252.6 373.2 252.9 373.1Q253.2 373.0 253.2 372.7Q253.3 372.5 253.4 372.5Q253.5 372.4 253.6 372.4Q253.8 372.4 253.9 372.5Q254.0 372.6 254.0 372.8Q253.9 373.4 253.4 373.7Q252.9 374.0 252.1 374.0Z M258.4 374.0Q258.0 374.0 258.0 373.6V366.0Q258.0 365.6 258.4 365.6Q258.8 365.6 258.8 366.0V369.0Q259.4 368.2 260.8 368.2H261.1Q262.3 368.2 262.8 368.7Q263.3 369.3 263.3 370.4V373.6Q263.3 374.0 263.0 374.0Q262.6 374.0 262.6 373.6V370.4Q262.6 369.6 262.3 369.3Q261.9 368.9 261.1 368.9H260.8Q259.9 368.9 259.4 369.2Q258.8 369.5 258.8 370.0V373.6Q258.8 374.0 258.4 374.0Z M269.3 374.0Q268.3 374.0 267.9 373.5Q267.4 373.1 267.4 372.1Q267.4 371.2 267.9 370.7Q268.3 370.3 269.3 370.3H272.0Q271.9 369.5 271.6 369.2Q271.3 368.9 270.5 368.9H269.8Q269.1 368.9 268.8 369.1Q268.4 369.2 268.3 369.5Q268.3 369.7 268.2 369.8Q268.1 369.9 267.9 369.9Q267.7 369.9 267.6 369.8Q267.5 369.7 267.6 369.5Q267.7 368.8 268.2 368.5Q268.8 368.2 269.8 368.2H270.5Q271.6 368.2 272.2 368.7Q272.7 369.3 272.7 370.4V373.6Q272.7 374.0 272.3 374.0Q272.0 374.0 272.0 373.6V373.1Q271.4 374.0 270.0 374.0ZM269.3 373.2H270.0Q270.5 373.2 270.9 373.1Q271.4 373.0 271.6 372.8Q271.9 372.5 272.0 372.0V371.0H269.3Q268.7 371.0 268.4 371.3Q268.2 371.5 268.2 372.1Q268.2 372.8 268.4 373.0Q268.7 373.2 269.3 373.2Z M277.3 374.0Q276.9 374.0 276.9 373.6V368.6Q276.9 368.2 277.3 368.2Q277.7 368.2 277.7 368.6V369.3Q278.0 368.8 278.6 368.5Q279.2 368.2 279.9 368.2Q280.3 368.2 280.3 368.6Q280.3 368.9 279.9 368.9Q278.9 368.9 278.3 369.4Q277.7 369.8 277.7 370.7V373.6Q277.7 374.0 277.3 374.0Z M285.1 376.4Q284.3 376.4 283.9 376.0Q283.5 375.6 283.5 374.8Q283.5 374.4 283.9 374.4Q284.3 374.4 284.3 374.8Q284.3 375.3 284.5 375.5Q284.6 375.6 285.1 375.6H287.3Q287.8 375.6 288.0 375.5Q288.2 375.3 288.2 374.8V373.2Q287.8 373.7 287.3 373.8Q286.8 374.0 286.2 374.0H285.7Q284.6 374.0 284.1 373.5Q283.5 372.9 283.5 371.8V368.6Q283.5 368.2 283.9 368.2Q284.3 368.2 284.3 368.6V371.8Q284.3 372.6 284.6 372.9Q284.9 373.2 285.7 373.2H286.2Q287.2 373.2 287.7 372.9Q288.2 372.5 288.2 371.8V368.6Q288.2 368.2 288.5 368.2Q288.9 368.2 288.9 368.6V374.8Q288.9 375.6 288.5 376.0Q288.1 376.4 287.3 376.4Z" fill="#fff" fill-opacity="0.45"/>

<!-- falling sakura petals -->
<g transform="translate(881 -2)"><g class="fall" style="animation-duration:14s;animation-delay:-6.7s"><g class="sway" style="animation-duration:2.7s;animation-delay:-0.1s"><path d="M0,-8 C6,-9 9,0 1,10 L0,6 L-1,10 C-9,0 -6,-9 0,-8Z" class="spin" style="animation-duration:6.7s" fill="#e11d2e" fill-opacity="0.9" transform="scale(0.89)"/></g></g></g><g transform="translate(936 -33)"><g class="fall" style="animation-duration:17s;animation-delay:-6.1s"><g class="sway" style="animation-duration:4.1s;animation-delay:-3.4s"><path d="M0,-8 C6,-9 9,0 1,10 L0,6 L-1,10 C-9,0 -6,-9 0,-8Z" class="spin" style="animation-duration:5.3s" fill="#ffffff" fill-opacity="0.95" transform="scale(1.00)"/></g></g></g><g transform="translate(666 -7)"><g class="fall" style="animation-duration:11s;animation-delay:-1.8s"><g class="sway" style="animation-duration:3.1s;animation-delay:-2.7s"><path d="M0,-8 C6,-9 9,0 1,10 L0,6 L-1,10 C-9,0 -6,-9 0,-8Z" class="spin" style="animation-duration:8.8s" fill="#ffffff" fill-opacity="0.95" transform="scale(1.52)"/></g></g></g><g transform="translate(1021 -29)"><g class="fall" style="animation-duration:14s;animation-delay:-9.4s"><g class="sway" style="animation-duration:3.5s;animation-delay:-0.6s"><path d="M0,-8 C6,-9 9,0 1,10 L0,6 L-1,10 C-9,0 -6,-9 0,-8Z" class="spin" style="animation-duration:6.4s" fill="#e11d2e" fill-opacity="0.9" transform="scale(1.56)"/></g></g></g><g transform="translate(731 30)"><g class="fall" style="animation-duration:11s;animation-delay:-10.0s"><g class="sway" style="animation-duration:3.6s;animation-delay:-3.2s"><path d="M0,-8 C6,-9 9,0 1,10 L0,6 L-1,10 C-9,0 -6,-9 0,-8Z" class="spin" style="animation-duration:8.2s" fill="#ffffff" fill-opacity="0.95" transform="scale(1.56)"/></g></g></g><g transform="translate(1160 -16)"><g class="fall" style="animation-duration:17s;animation-delay:-4.9s"><g class="sway" style="animation-duration:3.4s;animation-delay:-0.8s"><path d="M0,-8 C6,-9 9,0 1,10 L0,6 L-1,10 C-9,0 -6,-9 0,-8Z" class="spin" style="animation-duration:5.3s" fill="#ffffff" fill-opacity="0.95" transform="scale(1.17)"/></g></g></g><g transform="translate(684 -30)"><g class="fall" style="animation-duration:17s;animation-delay:-17.0s"><g class="sway" style="animation-duration:3.5s;animation-delay:-2.3s"><path d="M0,-8 C6,-9 9,0 1,10 L0,6 L-1,10 C-9,0 -6,-9 0,-8Z" class="spin" style="animation-duration:7.5s" fill="#e11d2e" fill-opacity="0.9" transform="scale(0.84)"/></g></g></g><g transform="translate(788 -15)"><g class="fall" style="animation-duration:11s;animation-delay:-7.0s"><g class="sway" style="animation-duration:3.4s;animation-delay:-0.6s"><path d="M0,-8 C6,-9 9,0 1,10 L0,6 L-1,10 C-9,0 -6,-9 0,-8Z" class="spin" style="animation-duration:6.2s" fill="#ffffff" fill-opacity="0.95" transform="scale(0.86)"/></g></g></g><g transform="translate(968 31)"><g class="fall" style="animation-duration:14s;animation-delay:-1.4s"><g class="sway" style="animation-duration:2.6s;animation-delay:-0.6s"><path d="M0,-8 C6,-9 9,0 1,10 L0,6 L-1,10 C-9,0 -6,-9 0,-8Z" class="spin" style="animation-duration:7.8s" fill="#ffffff" fill-opacity="0.95" transform="scale(0.98)"/></g></g></g><g transform="translate(883 -25)"><g class="fall" style="animation-duration:11s;animation-delay:-3.2s"><g class="sway" style="animation-duration:2.6s;animation-delay:-0.9s"><path d="M0,-8 C6,-9 9,0 1,10 L0,6 L-1,10 C-9,0 -6,-9 0,-8Z" class="spin" style="animation-duration:4.4s" fill="#e11d2e" fill-opacity="0.9" transform="scale(1.10)"/></g></g></g><g transform="translate(932 1)"><g class="fall" style="animation-duration:14s;animation-delay:-4.5s"><g class="sway" style="animation-duration:2.8s;animation-delay:-1.8s"><path d="M0,-8 C6,-9 9,0 1,10 L0,6 L-1,10 C-9,0 -6,-9 0,-8Z" class="spin" style="animation-duration:8.3s" fill="#ffffff" fill-opacity="0.95" transform="scale(0.82)"/></g></g></g><g transform="translate(719 -3)"><g class="fall" style="animation-duration:14s;animation-delay:-4.1s"><g class="sway" style="animation-duration:3.0s;animation-delay:-1.8s"><path d="M0,-8 C6,-9 9,0 1,10 L0,6 L-1,10 C-9,0 -6,-9 0,-8Z" class="spin" style="animation-duration:4.8s" fill="#ffffff" fill-opacity="0.95" transform="scale(1.36)"/></g></g></g><g transform="translate(649 6)"><g class="fall" style="animation-duration:11s;animation-delay:-4.0s"><g class="sway" style="animation-duration:4.1s;animation-delay:-4.1s"><path d="M0,-8 C6,-9 9,0 1,10 L0,6 L-1,10 C-9,0 -6,-9 0,-8Z" class="spin" style="animation-duration:6.9s" fill="#e11d2e" fill-opacity="0.9" transform="scale(0.84)"/></g></g></g><g transform="translate(1089 -14)"><g class="fall" style="animation-duration:11s;animation-delay:-1.2s"><g class="sway" style="animation-duration:2.6s;animation-delay:-1.9s"><path d="M0,-8 C6,-9 9,0 1,10 L0,6 L-1,10 C-9,0 -6,-9 0,-8Z" class="spin" style="animation-duration:7.0s" fill="#ffffff" fill-opacity="0.95" transform="scale(1.18)"/></g></g></g>
</svg>
